<svg width="24" height="166" viewBox="0 0 24 166" fill="none" xmlns="http://www.w3.org/2000/svg">
<path d="M12 71C9.62663 71 7.30655 71.7038 5.33316 73.0224C3.35977 74.3409 1.8217 76.2151 0.913451 78.4078C0.0051994 80.6005 -0.232441 83.0133 0.230582 85.3411C0.693605 87.6689 1.83649 89.807 3.51472 91.4853C5.19295 93.1635 7.33115 94.3064 9.65892 94.7694C11.9867 95.2324 14.3995 94.9948 16.5922 94.0865C18.7849 93.1783 20.6591 91.6402 21.9776 89.6668C23.2962 87.6934 24 85.3734 24 83C24 79.8174 22.7357 76.7652 20.4853 74.5147C18.2348 72.2643 15.1826 71 12 71ZM10.2857 87.7914L6 83.5057L7.36286 82.1429L10.2857 85.0657L16.6371 78.7143L18.0051 80.0737L10.2857 87.7914Z" fill="#2AD129"/>
<rect x="11" y="95" width="2" height="47" fill="#2AD129"/>
<rect x="11" y="24" width="2" height="47" fill="#2AD129"/>
<path d="M12 142C9.62663 142 7.30655 142.704 5.33316 144.022C3.35977 145.341 1.8217 147.215 0.913451 149.408C0.0051994 151.601 -0.232441 154.013 0.230582 156.341C0.693605 158.669 1.83649 160.807 3.51472 162.485C5.19295 164.164 7.33115 165.306 9.65892 165.769C11.9867 166.232 14.3995 165.995 16.5922 165.087C18.7849 164.178 20.6591 162.64 21.9776 160.667C23.2962 158.693 24 156.373 24 154C24 150.817 22.7357 147.765 20.4853 145.515C18.2348 143.264 15.1826 142 12 142ZM10.2857 158.791L6 154.506L7.36286 153.143L10.2857 156.066L16.6371 149.714L18.0051 151.074L10.2857 158.791Z" fill="#2AD129"/>
<path d="M12 0C9.62663 0 7.30655 0.703788 5.33316 2.02236C3.35977 3.34094 1.8217 5.21508 0.913451 7.4078C0.0051994 9.60051 -0.232441 12.0133 0.230582 14.3411C0.693605 16.6689 1.83649 18.807 3.51472 20.4853C5.19295 22.1635 7.33115 23.3064 9.65892 23.7694C11.9867 24.2324 14.3995 23.9948 16.5922 23.0865C18.7849 22.1783 20.6591 20.6402 21.9776 18.6668C23.2962 16.6934 24 14.3734 24 12C24 8.8174 22.7357 5.76515 20.4853 3.51472C18.2348 1.26428 15.1826 0 12 0ZM10.2857 16.7914L6 12.5057L7.36286 11.1429L10.2857 14.0657L16.6371 7.71428L18.0051 9.07371L10.2857 16.7914Z" fill="#2AD129"/>
</svg>
