<svg width="164" height="164" viewBox="0 0 164 164" fill="none" xmlns="http://www.w3.org/2000/svg">
<g opacity="0.2">
<path d="M79.95 63.5497C79.95 70.074 77.3582 76.3311 72.7448 80.9445C68.1314 85.5579 61.8743 88.1497 55.35 88.1497C48.8257 88.1497 42.5686 85.5579 37.9552 80.9445C33.3418 76.3311 30.75 70.074 30.75 63.5497C30.75 57.0254 33.3418 50.7683 37.9552 46.1549C42.5686 41.5415 48.8257 38.9497 55.35 38.9497C61.8743 38.9497 68.1314 41.5415 72.7448 46.1549C77.3582 50.7683 79.95 57.0254 79.95 63.5497Z" fill="#2AD129"/>
<path fill-rule="evenodd" clip-rule="evenodd" d="M55.35 71.7497C57.5248 71.7497 59.6105 70.8858 61.1483 69.348C62.6861 67.8102 63.55 65.7245 63.55 63.5497C63.55 61.3749 62.6861 59.2892 61.1483 57.7514C59.6105 56.2136 57.5248 55.3497 55.35 55.3497C53.1752 55.3497 51.0895 56.2136 49.5517 57.7514C48.0139 59.2892 47.15 61.3749 47.15 63.5497C47.15 65.7245 48.0139 67.8102 49.5517 69.348C51.0895 70.8858 53.1752 71.7497 55.35 71.7497ZM55.35 88.1497C58.5805 88.1497 61.7794 87.5134 64.764 86.2771C67.7486 85.0409 70.4605 83.2289 72.7448 80.9445C75.0292 78.6602 76.8412 75.9483 78.0774 72.9637C79.3137 69.9791 79.95 66.7802 79.95 63.5497C79.95 60.3192 79.3137 57.1203 78.0774 54.1357C76.8412 51.1511 75.0292 48.4392 72.7448 46.1549C70.4605 43.8706 67.7486 42.0585 64.764 40.8223C61.7794 39.586 58.5805 38.9497 55.35 38.9497C48.8257 38.9497 42.5686 41.5415 37.9552 46.1549C33.3418 50.7683 30.75 57.0254 30.75 63.5497C30.75 70.074 33.3418 76.3311 37.9552 80.9445C42.5686 85.5579 48.8257 88.1497 55.35 88.1497Z" fill="#2AD129"/>
<path fill-rule="evenodd" clip-rule="evenodd" d="M55.7596 94.2999C52.4974 94.2999 49.3689 95.5958 47.0622 97.9025C44.7555 100.209 43.4596 103.338 43.4596 106.6V118.9C43.4596 121.075 42.5956 123.16 41.0578 124.698C39.52 126.236 37.4343 127.1 35.2596 127.1C33.0848 127.1 30.9991 126.236 29.4613 124.698C27.9235 123.16 27.0596 121.075 27.0596 118.9V106.6C27.0596 98.9882 30.0833 91.6882 35.4656 86.3059C40.8479 80.9236 48.1479 77.8999 55.7596 77.8999C63.3713 77.8999 70.6712 80.9236 76.0535 86.3059C81.4358 91.6882 84.4596 98.9882 84.4596 106.6V110.7C84.4596 112.875 83.5956 114.96 82.0578 116.498C80.52 118.036 78.4343 118.9 76.2596 118.9C74.0848 118.9 71.9991 118.036 70.4613 116.498C68.9235 114.96 68.0596 112.875 68.0596 110.7V106.6C68.0596 103.338 66.7637 100.209 64.457 97.9025C62.1503 95.5958 59.0217 94.2999 55.7596 94.2999Z" fill="#2AD129"/>
<path d="M104.55 63.5497C104.55 70.074 107.142 76.3311 111.755 80.9445C116.368 85.5579 122.625 88.1497 129.15 88.1497C135.674 88.1497 141.931 85.5579 146.545 80.9445C151.158 76.3311 153.75 70.074 153.75 63.5497C153.75 57.0254 151.158 50.7683 146.545 46.1549C141.931 41.5415 135.674 38.9497 129.15 38.9497C122.625 38.9497 116.368 41.5415 111.755 46.1549C107.142 50.7683 104.55 57.0254 104.55 63.5497Z" fill="#2AD129"/>
<path fill-rule="evenodd" clip-rule="evenodd" d="M129.15 71.7497C126.975 71.7497 124.889 70.8858 123.352 69.348C121.814 67.8102 120.95 65.7245 120.95 63.5497C120.95 61.3749 121.814 59.2892 123.352 57.7514C124.889 56.2136 126.975 55.3497 129.15 55.3497C131.325 55.3497 133.41 56.2136 134.948 57.7514C136.486 59.2892 137.35 61.3749 137.35 63.5497C137.35 65.7245 136.486 67.8102 134.948 69.348C133.41 70.8858 131.325 71.7497 129.15 71.7497ZM129.15 88.1497C125.919 88.1497 122.72 87.5134 119.736 86.2771C116.751 85.0409 114.039 83.2289 111.755 80.9445C109.471 78.6602 107.659 75.9483 106.422 72.9637C105.186 69.9791 104.55 66.7802 104.55 63.5497C104.55 60.3192 105.186 57.1203 106.422 54.1357C107.659 51.1511 109.471 48.4392 111.755 46.1549C114.039 43.8706 116.751 42.0585 119.736 40.8223C122.72 39.586 125.919 38.9497 129.15 38.9497C135.674 38.9497 141.931 41.5415 146.545 46.1549C151.158 50.7683 153.75 57.0254 153.75 63.5497C153.75 70.074 151.158 76.3311 146.545 80.9445C141.931 85.5579 135.674 88.1497 129.15 88.1497Z" fill="#2AD129"/>
<path fill-rule="evenodd" clip-rule="evenodd" d="M128.74 94.2999C132.002 94.2999 135.131 95.5958 137.437 97.9025C139.744 100.209 141.04 103.338 141.04 106.6V118.9C141.04 121.075 141.904 123.16 143.442 124.698C144.98 126.236 147.065 127.1 149.24 127.1C151.415 127.1 153.501 126.236 155.038 124.698C156.576 123.16 157.44 121.075 157.44 118.9V106.6C157.44 98.9882 154.416 91.6882 149.034 86.3059C143.652 80.9236 136.352 77.8999 128.74 77.8999C121.128 77.8999 113.828 80.9236 108.446 86.3059C103.064 91.6882 100.04 98.9882 100.04 106.6V110.7C100.04 112.875 100.904 114.96 102.442 116.498C103.98 118.036 106.065 118.9 108.24 118.9C110.415 118.9 112.501 118.036 114.038 116.498C115.576 114.96 116.44 112.875 116.44 110.7V106.6C116.44 103.338 117.736 100.209 120.043 97.9025C122.349 95.5958 125.478 94.2999 128.74 94.2999Z" fill="#2AD129"/>
<path fill-rule="evenodd" clip-rule="evenodd" d="M92.66 116.85C89.3978 116.85 86.2692 118.146 83.9625 120.452C81.6558 122.759 80.36 125.888 80.36 129.15V141.45C80.36 143.624 79.496 145.71 77.9582 147.248C76.4204 148.786 74.3347 149.65 72.16 149.65C69.9852 149.65 67.8995 148.786 66.3617 147.248C64.8239 145.71 63.96 143.624 63.96 141.45V129.15C63.96 121.538 66.9837 114.238 72.366 108.856C77.7483 103.473 85.0482 100.45 92.66 100.45C100.272 100.45 107.572 103.473 112.954 108.856C118.336 114.238 121.36 121.538 121.36 129.15V141.45C121.36 143.624 120.496 145.71 118.958 147.248C117.42 148.786 115.335 149.65 113.16 149.65C110.985 149.65 108.899 148.786 107.362 147.248C105.824 145.71 104.96 143.624 104.96 141.45V129.15C104.96 125.888 103.664 122.759 101.357 120.452C99.0507 118.146 95.9221 116.85 92.66 116.85Z" fill="#2AD129"/>
<path d="M116.849 86.0995C116.849 92.6238 114.258 98.8809 109.644 103.494C105.031 108.108 98.7737 110.7 92.2494 110.7C85.7251 110.7 79.468 108.108 74.8546 103.494C70.2412 98.8809 67.6494 92.6238 67.6494 86.0995C67.6494 79.5752 70.2412 73.3181 74.8546 68.7047C79.468 64.0913 85.7251 61.4995 92.2494 61.4995C98.7737 61.4995 105.031 64.0913 109.644 68.7047C114.258 73.3181 116.849 79.5752 116.849 86.0995Z" fill="#2AD129"/>
<path fill-rule="evenodd" clip-rule="evenodd" d="M92.2494 94.2995C94.4242 94.2995 96.5099 93.4356 98.0477 91.8978C99.5855 90.36 100.449 88.2743 100.449 86.0995C100.449 83.9247 99.5855 81.839 98.0477 80.3012C96.5099 78.7634 94.4242 77.8995 92.2494 77.8995C90.0746 77.8995 87.9889 78.7634 86.4511 80.3012C84.9133 81.839 84.0494 83.9247 84.0494 86.0995C84.0494 88.2743 84.9133 90.36 86.4511 91.8978C87.9889 93.4356 90.0746 94.2995 92.2494 94.2995ZM92.2494 110.7C98.7737 110.7 105.031 108.108 109.644 103.494C114.258 98.8809 116.849 92.6238 116.849 86.0995C116.849 79.5752 114.258 73.3181 109.644 68.7047C105.031 64.0913 98.7737 61.4995 92.2494 61.4995C85.7251 61.4995 79.468 64.0913 74.8546 68.7047C70.2412 73.3181 67.6494 79.5752 67.6494 86.0995C67.6494 92.6238 70.2412 98.8809 74.8546 103.494C79.468 108.108 85.7251 110.7 92.2494 110.7Z" fill="#2AD129"/>
<path d="M34.8496 94.2998H75.8496V127.1H34.8496V94.2998ZM108.65 94.2998H149.65V127.1H108.65V94.2998Z" fill="#2AD129"/>
<path d="M75.85 110.7H108.65L112.75 149.65H71.75L75.85 110.7Z" fill="#2AD129"/>
</g>
<path fill-rule="evenodd" clip-rule="evenodd" d="M40.9994 73.7998C45.349 73.7998 49.5204 72.0719 52.596 68.9964C55.6716 65.9208 57.3994 61.7494 57.3994 57.3998C57.3994 53.0503 55.6716 48.8788 52.596 45.8033C49.5204 42.7277 45.349 40.9998 40.9994 40.9998C36.6499 40.9998 32.4785 42.7277 29.4029 45.8033C26.3273 48.8788 24.5994 53.0503 24.5994 57.3998C24.5994 61.7494 26.3273 65.9208 29.4029 68.9964C32.4785 72.0719 36.6499 73.7998 40.9994 73.7998ZM40.9994 81.9998C44.2299 81.9998 47.4288 81.3635 50.4134 80.1272C53.398 78.891 56.1099 77.079 58.3942 74.7946C60.6786 72.5103 62.4906 69.7984 63.7269 66.8138C64.9631 63.8292 65.5994 60.6303 65.5994 57.3998C65.5994 54.1693 64.9631 50.9704 63.7269 47.9858C62.4906 45.0012 60.6786 42.2893 58.3942 40.005C56.1099 37.7207 53.398 35.9086 50.4134 34.6724C47.4288 33.4361 44.2299 32.7998 40.9994 32.7998C34.4751 32.7998 28.218 35.3916 23.6046 40.005C18.9912 44.6184 16.3994 50.8755 16.3994 57.3998C16.3994 63.9241 18.9912 70.1812 23.6046 74.7946C28.218 79.408 34.4751 81.9998 40.9994 81.9998Z" fill="#2AD129"/>
<path fill-rule="evenodd" clip-rule="evenodd" d="M31.6026 72.9468C31.9844 73.3276 32.2874 73.7801 32.494 74.2782C32.7007 74.7763 32.8071 75.3103 32.8071 75.8496C32.8071 76.3888 32.7007 76.9228 32.494 77.4209C32.2874 77.9191 31.9844 78.3715 31.6026 78.7524L28.831 81.5158C23.4972 86.851 20.5005 94.0862 20.4998 101.63V116.85C20.4998 117.937 20.0678 118.98 19.2989 119.749C18.53 120.518 17.4872 120.95 16.3998 120.95C15.3124 120.95 14.2696 120.518 13.5007 119.749C12.7318 118.98 12.2998 117.937 12.2998 116.85V101.63C12.301 91.9116 16.1619 82.5911 23.0336 75.7184L25.797 72.9468C26.1779 72.5649 26.6303 72.262 27.1284 72.0553C27.6265 71.8486 28.1605 71.7422 28.6998 71.7422C29.2391 71.7422 29.7731 71.8486 30.2712 72.0553C30.7693 72.262 31.2218 72.5649 31.6026 72.9468ZM128.297 70.4868C127.915 70.8676 127.612 71.3201 127.406 71.8182C127.199 72.3163 127.092 72.8503 127.092 73.3896C127.092 73.9288 127.199 74.4628 127.406 74.961C127.612 75.4591 127.915 75.9115 128.297 76.2924L131.069 79.0558C133.71 81.6973 135.805 84.8332 137.235 88.2845C138.664 91.7357 139.4 95.4348 139.4 99.1704V116.85C139.4 117.937 139.832 118.98 140.601 119.749C141.37 120.518 142.412 120.95 143.5 120.95C144.587 120.95 145.63 120.518 146.399 119.749C147.168 118.98 147.6 117.937 147.6 116.85V99.1704C147.599 89.4516 143.738 80.1311 136.866 73.2584L134.103 70.4868C133.722 70.1049 133.269 69.802 132.771 69.5953C132.273 69.3886 131.739 69.2822 131.2 69.2822C130.661 69.2822 130.127 69.3886 129.628 69.5953C129.13 69.802 128.678 70.1049 128.297 70.4868Z" fill="#2AD129"/>
<path fill-rule="evenodd" clip-rule="evenodd" d="M114.8 73.7998C110.451 73.7998 106.279 72.0719 103.204 68.9964C100.128 65.9208 98.4002 61.7494 98.4002 57.3998C98.4002 53.0503 100.128 48.8788 103.204 45.8033C106.279 42.7277 110.451 40.9998 114.8 40.9998C119.15 40.9998 123.321 42.7277 126.397 45.8033C129.472 48.8788 131.2 53.0503 131.2 57.3998C131.2 61.7494 129.472 65.9208 126.397 68.9964C123.321 72.0719 119.15 73.7998 114.8 73.7998ZM114.8 81.9998C111.57 81.9998 108.371 81.3635 105.386 80.1272C102.402 78.891 99.6897 77.079 97.4054 74.7946C95.121 72.5103 93.309 69.7984 92.0728 66.8138C90.8365 63.8292 90.2002 60.6303 90.2002 57.3998C90.2002 54.1693 90.8365 50.9704 92.0728 47.9858C93.309 45.0012 95.121 42.2893 97.4054 40.005C99.6897 37.7207 102.402 35.9086 105.386 34.6724C108.371 33.4361 111.57 32.7998 114.8 32.7998C121.325 32.7998 127.582 35.3916 132.195 40.005C136.808 44.6184 139.4 50.8755 139.4 57.3998C139.4 63.9241 136.808 70.1812 132.195 74.7946C127.582 79.408 121.325 81.9998 114.8 81.9998ZM77.9002 108.65C72.4633 108.65 67.249 110.81 63.4045 114.654C59.56 118.499 57.4002 123.713 57.4002 129.15V139.81C57.4002 140.897 56.9682 141.94 56.1993 142.709C55.4304 143.478 54.3876 143.91 53.3002 143.91C52.2128 143.91 51.17 143.478 50.4011 142.709C49.6322 141.94 49.2002 140.897 49.2002 139.81V129.15C49.2002 121.538 52.2239 114.238 57.6062 108.856C62.9885 103.474 70.2885 100.45 77.9002 100.45C85.5119 100.45 92.8119 103.474 98.1942 108.856C103.576 114.238 106.6 121.538 106.6 129.15V139.81C106.6 140.897 106.168 141.94 105.399 142.709C104.63 143.478 103.588 143.91 102.5 143.91C101.413 143.91 100.37 143.478 99.6011 142.709C98.8322 141.94 98.4002 140.897 98.4002 139.81V129.15C98.4002 126.458 97.8699 123.792 96.8397 121.305C95.8095 118.818 94.2995 116.558 92.3959 114.654C90.4923 112.751 88.2324 111.24 85.7452 110.21C83.258 109.18 80.5923 108.65 77.9002 108.65Z" fill="#2AD129"/>
<path fill-rule="evenodd" clip-rule="evenodd" d="M77.8998 96.3496C82.2494 96.3496 86.4208 94.6218 89.4964 91.5462C92.5719 88.4706 94.2998 84.2992 94.2998 79.9496C94.2998 75.6001 92.5719 71.4287 89.4964 68.3531C86.4208 65.2775 82.2494 63.5496 77.8998 63.5496C73.5503 63.5496 69.3789 65.2775 66.3033 68.3531C63.2277 71.4287 61.4998 75.6001 61.4998 79.9496C61.4998 84.2992 63.2277 88.4706 66.3033 91.5462C69.3789 94.6218 73.5503 96.3496 77.8998 96.3496ZM77.8998 104.55C84.4241 104.55 90.6812 101.958 95.2946 97.3444C99.908 92.731 102.5 86.4739 102.5 79.9496C102.5 73.4253 99.908 67.1682 95.2946 62.5548C90.6812 57.9414 84.4241 55.3496 77.8998 55.3496C71.3755 55.3496 65.1184 57.9414 60.505 62.5548C55.8916 67.1682 53.2998 73.4253 53.2998 79.9496C53.2998 86.4739 55.8916 92.731 60.505 97.3444C65.1184 101.958 71.3755 104.55 77.8998 104.55Z" fill="#2AD129"/>
</svg>
