<svg width="164" height="164" viewBox="0 0 164 164" fill="none" xmlns="http://www.w3.org/2000/svg">
<path d="M20.5 20.5H41V41H20.5V20.5Z" fill="black"/>
<path d="M61.5 0V61.5H0V0H61.5ZM51.25 10.25H10.25V51.25H51.25V10.25ZM41 123H20.5V143.5H41V123Z" fill="black"/>
<path d="M61.5 102.5V164H0V102.5H61.5ZM10.25 112.75V153.75H51.25V112.75H10.25ZM123 20.5H143.5V41H123V20.5Z" fill="black"/>
<path d="M102.5 0V61.5H164V0H102.5ZM153.75 10.25V51.25H112.75V10.25H153.75ZM82 10.25V0H92.25V20.5H82V41H71.75V10.25H82ZM82 61.5V41H92.25V61.5H82ZM61.5 82V71.75H71.75V61.5H82V82H92.25V71.75H143.5V82H102.5V92.25H71.75V82H61.5ZM61.5 82V92.25H20.5V82H10.25V92.25H0V71.75H30.75V82H61.5ZM164 92.25H153.75V71.75H164V92.25ZM153.75 92.25H143.5V112.75H164V102.5H153.75V92.25ZM112.75 92.25H133.25V102.5H123V112.75H112.75V92.25ZM133.25 123V112.75H123V123H112.75V133.25H92.25V143.5H123V123H133.25ZM133.25 123H164V133.25H143.5V143.5H133.25V123ZM92.25 112.75V123H102.5V102.5H71.75V112.75H92.25Z" fill="black"/>
<path d="M71.75 123H82V153.75H123V164H71.75V123ZM164 143.5V164H133.25V153.75H153.75V143.5H164Z" fill="black"/>
</svg>
