<svg width="34" height="31" viewBox="0 0 34 31" fill="none" xmlns="http://www.w3.org/2000/svg">
<path d="M16.9998 14.065C15.0756 14.065 13.4275 13.379 12.0555 12.007C10.6835 10.635 9.99828 8.98766 9.99984 7.06499C10.0014 5.14233 10.6866 3.49344 12.0555 2.11833C13.4244 0.743215 15.0725 0.0595486 16.9998 0.0673264C18.9272 0.0751041 20.5753 0.759548 21.9442 2.12066C23.3131 3.48177 23.9983 5.13066 23.9998 7.06733C24.0014 9.00399 23.3162 10.6513 21.9442 12.0093C20.5722 13.3673 18.9241 14.051 16.9998 14.065ZM0.666504 30.9373V27.0967C0.666504 26.1338 0.946504 25.2331 1.5065 24.3947C2.06806 23.5547 2.8225 22.9029 3.76984 22.4393C5.9725 21.3831 8.17673 20.5913 10.3825 20.064C12.5867 19.5351 14.7925 19.2707 16.9998 19.2707C19.2072 19.2707 21.4137 19.5351 23.6195 20.064C25.8253 20.5929 28.028 21.3847 30.2275 22.4393C31.1764 22.9029 31.9308 23.5547 32.4908 24.3947C33.0524 25.2331 33.3332 26.1338 33.3332 27.0967V30.9373H0.666504Z" fill="white"/>
</svg>
