<svg width="282" height="50" viewBox="0 0 282 50" fill="none" xmlns="http://www.w3.org/2000/svg">
<path d="M23.0979 5.8541C23.6966 4.01148 26.3034 4.01148 26.9021 5.8541L30.1638 15.8926C30.4316 16.7167 31.1995 17.2746 32.0659 17.2746H42.621C44.5585 17.2746 45.364 19.7538 43.7966 20.8926L35.2574 27.0967C34.5564 27.606 34.2631 28.5088 34.5308 29.3328L37.7925 39.3713C38.3912 41.2139 36.2823 42.7462 34.7148 41.6074L26.1756 35.4033C25.4746 34.894 24.5254 34.894 23.8244 35.4033L15.2852 41.6074C13.7177 42.7462 11.6088 41.2139 12.2075 39.3713L15.4692 29.3328C15.7369 28.5088 15.4436 27.606 14.7426 27.0967L6.20338 20.8926C4.63595 19.7538 5.44151 17.2746 7.37895 17.2746H17.9341C18.8005 17.2746 19.5684 16.7167 19.8362 15.8926L23.0979 5.8541Z" fill="#FFE743"/>
<path d="M81.0979 5.8541C81.6966 4.01148 84.3034 4.01148 84.9021 5.8541L88.1638 15.8926C88.4316 16.7167 89.1995 17.2746 90.0659 17.2746H100.621C102.558 17.2746 103.364 19.7538 101.797 20.8926L93.2574 27.0967C92.5564 27.606 92.2631 28.5088 92.5308 29.3328L95.7925 39.3713C96.3912 41.2139 94.2823 42.7462 92.7148 41.6074L84.1756 35.4033C83.4746 34.894 82.5254 34.894 81.8244 35.4033L73.2852 41.6074C71.7177 42.7462 69.6088 41.2139 70.2075 39.3713L73.4692 29.3328C73.7369 28.5088 73.4436 27.606 72.7426 27.0967L64.2034 20.8926C62.636 19.7538 63.4415 17.2746 65.379 17.2746H75.9341C76.8005 17.2746 77.5684 16.7167 77.8362 15.8926L81.0979 5.8541Z" fill="#FFE743"/>
<path d="M139.098 5.8541C139.697 4.01148 142.303 4.01148 142.902 5.8541L146.164 15.8926C146.432 16.7167 147.199 17.2746 148.066 17.2746H158.621C160.558 17.2746 161.364 19.7538 159.797 20.8926L151.257 27.0967C150.556 27.606 150.263 28.5088 150.531 29.3328L153.793 39.3713C154.391 41.2139 152.282 42.7462 150.715 41.6074L142.176 35.4033C141.475 34.894 140.525 34.894 139.824 35.4033L131.285 41.6074C129.718 42.7462 127.609 41.2139 128.207 39.3713L131.469 29.3328C131.737 28.5088 131.444 27.606 130.743 27.0967L122.203 20.8926C120.636 19.7538 121.442 17.2746 123.379 17.2746H133.934C134.801 17.2746 135.568 16.7167 135.836 15.8926L139.098 5.8541Z" fill="#FFE743"/>
<path d="M197.098 5.8541C197.697 4.01148 200.303 4.01148 200.902 5.8541L204.164 15.8926C204.432 16.7167 205.199 17.2746 206.066 17.2746H216.621C218.558 17.2746 219.364 19.7538 217.797 20.8926L209.257 27.0967C208.556 27.606 208.263 28.5088 208.531 29.3328L211.793 39.3713C212.391 41.2139 210.282 42.7462 208.715 41.6074L200.176 35.4033C199.475 34.894 198.525 34.894 197.824 35.4033L189.285 41.6074C187.718 42.7462 185.609 41.2139 186.207 39.3713L189.469 29.3328C189.737 28.5088 189.444 27.606 188.743 27.0967L180.203 20.8926C178.636 19.7538 179.442 17.2746 181.379 17.2746H191.934C192.801 17.2746 193.568 16.7167 193.836 15.8926L197.098 5.8541Z" fill="#FFE743"/>
<path d="M255.098 5.8541C255.697 4.01148 258.303 4.01148 258.902 5.8541L262.164 15.8926C262.432 16.7167 263.199 17.2746 264.066 17.2746H274.621C276.558 17.2746 277.364 19.7538 275.797 20.8926L267.257 27.0967C266.556 27.606 266.263 28.5088 266.531 29.3328L269.793 39.3713C270.391 41.2139 268.282 42.7462 266.715 41.6074L258.176 35.4033C257.475 34.894 256.525 34.894 255.824 35.4033L247.285 41.6074C245.718 42.7462 243.609 41.2139 244.207 39.3713L247.469 29.3328C247.737 28.5088 247.444 27.606 246.743 27.0967L238.203 20.8926C236.636 19.7538 237.442 17.2746 239.379 17.2746H249.934C250.801 17.2746 251.568 16.7167 251.836 15.8926L255.098 5.8541Z" fill="#D9D9D9"/>
</svg>
