<svg width="164" height="164" viewBox="0 0 164 164" fill="none" xmlns="http://www.w3.org/2000/svg">
<g clip-path="url(#clip0_338_1143)">
<path fill-rule="evenodd" clip-rule="evenodd" d="M73.4792 15.0126C71.6085 14.3883 69.6249 14.1761 67.6645 14.3908C65.7041 14.6055 63.8134 15.2419 62.1222 16.2563L33.9688 33.1483C31.9451 34.3626 30.2703 36.0802 29.1075 38.1339C27.9448 40.1876 27.3336 42.5074 27.3337 44.8675V136.666H20.5003C18.688 136.666 16.9499 137.386 15.6684 138.668C14.3869 139.949 13.667 141.688 13.667 143.5C13.667 145.312 14.3869 147.05 15.6684 148.332C16.9499 149.613 18.688 150.333 20.5003 150.333H143.5C145.313 150.333 147.051 149.613 148.332 148.332C149.614 147.05 150.334 145.312 150.334 143.5C150.334 141.688 149.614 139.949 148.332 138.668C147.051 137.386 145.313 136.666 143.5 136.666H136.667V45.9198C136.665 43.0535 135.762 40.2602 134.086 37.9352C132.41 35.6101 130.045 33.871 127.326 32.9638L73.4792 15.0126ZM123 136.666V45.9198L75.167 29.9845V136.666H123ZM61.5003 32.5675L41.0003 44.8675V136.666H61.5003V32.5675Z" fill="#2AD129"/>
</g>
<defs>
<clipPath id="clip0_338_1143">
<rect width="164" height="164" fill="white"/>
</clipPath>
</defs>
</svg>
